<?xml version="1.0" standalone="no"?>
<!DOCTYPE svg PUBLIC "-//W3C//DTD SVG 20010904//EN"
 "http://www.w3.org/TR/2001/REC-SVG-20010904/DTD/svg10.dtd">
<svg version="1.0" xmlns="http://www.w3.org/2000/svg"
 width="512.000000pt" height="512.000000pt" viewBox="0 0 512.000000 512.000000"
 preserveAspectRatio="xMidYMid meet">

<g transform="translate(0.000000,512.000000) scale(0.100000,-0.100000)"
fill="#000000" stroke="none">
<path d="M1065 4935 c-14 -13 -25 -34 -25 -46 0 -16 147 -585 186 -721 4 -12
-4 -18 -27 -23 -45 -10 -131 -99 -147 -151 -23 -79 -11 -149 36 -212 l24 -34
-73 -66 c-426 -389 -789 -1136 -864 -1780 -79 -672 168 -1063 755 -1196 204
-46 495 -66 965 -66 589 0 904 29 1140 104 l73 23 264 -299 c164 -186 272
-301 287 -305 13 -3 34 -2 47 3 21 8 279 297 1115 1247 153 173 163 194 114
242 l-24 25 -336 0 -335 0 0 1615 0 1616 -25 24 -24 25 -509 0 c-487 0 -511
-1 -533 -19 l-24 -19 -5 -801 -5 -801 -70 93 c-38 50 -125 148 -192 216 l-122
123 23 32 c73 97 54 235 -44 318 l-40 35 65 288 c36 158 65 296 65 307 0 35
-45 68 -93 68 -62 0 -142 26 -217 71 -182 108 -387 117 -560 24 -167 -90 -167
-90 -277 -90 l-102 0 -120 63 c-179 93 -316 118 -366 67z m1346 -204 c64 -33
137 -65 163 -72 25 -6 46 -13 46 -15 0 -7 -100 -446 -106 -466 -7 -25 -94 -26
-94 -2 0 15 44 287 56 345 5 26 3 26 -71 38 -42 7 -79 11 -81 8 -3 -2 -18 -85
-35 -183 -16 -99 -31 -189 -34 -201 l-5 -23 -253 0 -253 0 -32 161 c-17 89
-34 164 -37 167 -5 5 -132 -16 -146 -24 -4 -2 6 -66 22 -141 15 -76 28 -144
29 -150 0 -10 -25 -13 -93 -13 l-93 0 -78 298 c-44 163 -82 303 -84 311 -8 23
33 7 133 -48 195 -110 401 -108 587 5 95 58 158 75 258 70 81 -4 90 -7 201
-65z m1669 -1545 c0 -1574 0 -1614 19 -1637 19 -24 19 -24 309 -29 l290 -5
-503 -570 c-276 -314 -508 -570 -515 -570 -7 0 -239 256 -515 570 l-503 570
290 5 c290 5 290 5 309 29 19 23 19 63 19 1637 l0 1614 400 0 400 0 0 -1614z
m-1465 789 c33 -32 33 -78 0 -110 l-24 -25 -661 0 c-561 0 -665 2 -689 15 -48
24 -56 81 -16 120 l24 25 671 0 671 0 24 -25z m-18 -327 c172 -144 340 -339
468 -543 l55 -88 0 -669 0 -668 -335 0 -336 0 -24 -25 c-44 -43 -35 -75 48
-168 389 -440 519 -589 516 -591 -2 -2 -42 -13 -89 -24 -207 -50 -493 -72
-970 -72 -826 0 -1179 67 -1390 267 -142 133 -204 291 -216 548 -25 511 229
1232 599 1705 64 81 223 246 300 311 l58 49 639 0 639 0 38 -32z"/>
<path d="M1805 3273 c-60 -8 -181 -42 -239 -68 -482 -213 -670 -804 -400
-1257 65 -108 194 -237 302 -302 346 -206 789 -151 1073 133 112 112 191 253
235 417 27 103 26 312 -3 419 -92 340 -362 591 -698 650 -81 14 -198 17 -270
8z m247 -167 c102 -20 175 -49 260 -105 101 -66 196 -172 247 -274 61 -124 76
-190 75 -337 -1 -107 -5 -137 -27 -205 -38 -115 -90 -198 -182 -290 -92 -92
-175 -144 -290 -182 -68 -22 -98 -26 -205 -27 -147 -1 -213 14 -337 75 -145
72 -287 228 -343 377 -77 204 -59 439 47 622 47 80 178 213 256 259 152 89
328 120 499 87z"/>
<path d="M1840 2920 l0 -40 -56 0 c-87 0 -133 -18 -189 -75 -59 -59 -75 -102
-75 -205 0 -103 16 -146 75 -205 68 -69 94 -75 324 -75 190 0 192 0 216 -25
22 -21 25 -33 25 -95 0 -62 -3 -74 -25 -95 -24 -25 -26 -25 -215 -25 -189 0
-191 0 -215 25 -14 13 -25 31 -25 40 0 12 -15 15 -80 15 -90 0 -90 0 -68 -74
16 -55 99 -138 154 -154 23 -7 67 -12 98 -12 l56 0 0 -40 0 -40 80 0 80 0 0
40 0 40 56 0 c87 0 133 18 189 75 59 59 75 102 75 205 0 103 -16 146 -75 205
-68 69 -94 75 -324 75 -190 0 -192 0 -216 25 -22 21 -25 33 -25 95 0 62 3 74
25 95 24 25 26 25 215 25 189 0 191 0 215 -25 21 -20 25 -34 25 -80 l0 -55 80
0 80 0 0 56 c0 87 -18 133 -75 189 -56 57 -102 75 -189 75 l-56 0 0 40 0 40
-80 0 -80 0 0 -40z"/>
</g>
</svg>
