<?xml version="1.0" standalone="no"?>
<!DOCTYPE svg PUBLIC "-//W3C//DTD SVG 20010904//EN"
 "http://www.w3.org/TR/2001/REC-SVG-20010904/DTD/svg10.dtd">
<svg version="1.0" xmlns="http://www.w3.org/2000/svg"
 width="512.000000pt" height="512.000000pt" viewBox="0 0 512.000000 512.000000"
 preserveAspectRatio="xMidYMid meet">

<g transform="translate(0.000000,512.000000) scale(0.100000,-0.100000)"
fill="#000000" stroke="none">
<path d="M480 5106 c-105 -28 -198 -118 -230 -223 -20 -64 -20 -89 -20 -2323
0 -2238 0 -2258 20 -2323 26 -84 96 -164 178 -204 l57 -28 1775 0 1775 0 56
26 c72 34 134 96 168 168 l26 56 3 778 c2 544 -1 783 -8 798 -26 48 -111 43
-131 -8 -5 -14 -9 -344 -9 -774 0 -606 -3 -756 -13 -782 -22 -51 -88 -105
-139 -112 -24 -3 -430 -5 -903 -3 l-860 3 120 69 120 69 1078 1076 c593 592
1087 1091 1099 1110 16 25 21 49 20 95 l0 61 102 105 c112 114 133 152 122
222 -9 58 -31 95 -77 127 -49 36 -103 46 -160 31 -35 -10 -66 -34 -154 -120
-106 -103 -111 -107 -147 -103 -20 3 -52 0 -70 -6 -24 -8 -337 -315 -1125
-1103 l-1093 -1093 -141 -240 c-77 -132 -143 -255 -146 -273 l-6 -32 -616 0
c-578 0 -618 2 -656 19 -48 22 -79 54 -100 103 -13 33 -15 279 -15 2288 0
2009 2 2255 15 2288 21 49 52 81 100 103 38 18 95 19 1257 19 l1217 0 3 -477
c3 -428 5 -482 20 -516 30 -66 76 -115 136 -144 l57 -28 478 -3 477 -3 0 -349
c0 -238 4 -357 11 -374 23 -51 103 -55 128 -7 7 13 11 159 11 428 l0 408 -608
608 -607 607 -1275 -1 c-974 0 -1286 -3 -1320 -13z m3154 -1154 c-438 -3 -442
-2 -488 61 -20 27 -21 42 -24 440 l-3 412 456 -455 455 -455 -396 -3z m1090
-988 c9 -8 16 -21 16 -27 0 -7 -42 -54 -93 -105 l-93 -92 -27 28 -27 28 94 92
c51 51 98 92 104 92 6 0 18 -7 26 -16z m-296 -307 l92 -93 -60 -59 -60 -59
-95 94 -95 95 57 57 c32 32 60 58 63 58 3 0 47 -42 98 -93z m-223 -227 l90
-90 -48 -47 -47 -48 -95 95 -95 94 42 43 c23 24 47 43 53 43 6 0 51 -41 100
-90z m-207 -203 l92 -92 -835 -835 -835 -835 -95 95 -95 95 832 832 c458 458
835 833 838 833 3 0 47 -42 98 -93z m-1775 -1775 l78 -79 -188 -110 c-103 -61
-189 -110 -191 -108 -4 4 211 374 218 375 3 0 41 -35 83 -78z"/>
<path d="M770 4443 c-52 -19 -68 -85 -30 -123 20 -20 33 -20 809 -20 l790 0
20 26 c27 35 26 57 -3 91 l-24 28 -774 2 c-425 1 -780 -1 -788 -4z"/>
<path d="M740 3930 c-30 -30 -27 -83 6 -109 26 -21 33 -21 795 -21 542 0 775
3 792 11 24 11 47 47 47 73 0 7 -9 25 -21 40 l-20 26 -790 0 c-776 0 -789 0
-809 -20z"/>
<path d="M736 3258 c-21 -30 -20 -71 3 -99 l19 -24 1441 0 1440 0 22 22 c27
27 29 75 4 103 -18 20 -28 20 -1466 20 l-1448 0 -15 -22z"/>
<path d="M742 2570 c-32 -30 -30 -82 4 -109 l27 -21 1423 0 c1036 0 1430 3
1448 11 51 23 55 103 7 128 -14 8 -462 11 -1453 11 -1430 0 -1434 0 -1456 -20z"/>
<path d="M746 1879 c-33 -26 -36 -79 -6 -109 20 -20 33 -20 1033 -20 l1014 0
21 23 c29 31 28 72 -3 102 l-24 25 -1004 0 c-1001 0 -1004 0 -1031 -21z"/>
<path d="M740 1180 c-25 -25 -26 -71 -1 -101 l19 -24 736 0 735 0 22 22 c27
27 29 75 4 103 -18 20 -29 20 -757 20 -725 0 -738 0 -758 -20z"/>
</g>
</svg>
